<?xml version="1.0" standalone="no"?>
<!DOCTYPE svg PUBLIC "-//W3C//DTD SVG 20010904//EN"
 "http://www.w3.org/TR/2001/REC-SVG-20010904/DTD/svg10.dtd">
<svg version="1.0" xmlns="http://www.w3.org/2000/svg"
 width="1191.000000pt" height="842.000000pt" viewBox="0 0 1191.000000 842.000000"
 preserveAspectRatio="xMidYMid meet" fill="#006661">

<g transform="translate(0.000000,842.000000) scale(0.100000,-0.100000)"
 stroke="none">
<path d="M2145 7379 c-547 -63 -965 -255 -1301 -600 -253 -260 -424 -549 -564
-954 -208 -600 -248 -1339 -110 -2028 145 -722 604 -1338 1213 -1627 287 -136
557 -193 917 -193 230 0 342 12 543 54 81 18 149 30 151 28 2 -2 45 -86 96
-187 255 -503 518 -861 761 -1035 295 -210 664 -263 1014 -146 189 63 348 170
540 363 109 109 251 276 320 376 l26 37 -46 74 c-25 41 -50 73 -55 72 -5 -2
-58 -35 -117 -74 -282 -186 -579 -280 -837 -266 -131 7 -201 25 -314 78 -152
70 -278 178 -454 385 -116 138 -396 522 -414 568 -3 7 38 45 93 88 378 291
623 654 798 1183 187 563 239 1156 154 1740 -96 662 -314 1136 -687 1497 -333
322 -734 512 -1192 568 -97 12 -431 11 -535 -1z m438 -403 c719 -131 1171
-732 1309 -1738 21 -147 23 -203 23 -568 -1 -435 -10 -561 -60 -835 -66 -358
-185 -675 -336 -897 -60 -88 -222 -269 -231 -258 -3 3 -67 93 -143 200 -76
107 -181 249 -234 315 -124 156 -343 380 -451 462 -316 239 -727 277 -1089
101 -101 -50 -205 -125 -323 -236 -49 -45 -92 -82 -97 -82 -13 0 -109 350
-136 497 -59 320 -79 571 -72 918 5 289 18 416 68 674 111 568 320 957 647
1204 195 146 403 228 662 261 74 9 378 -3 463 -18z m-679 -3451 c227 -48 442
-238 642 -566 60 -100 264 -504 264 -524 0 -24 -210 -49 -395 -49 -258 0 -447
41 -652 139 -266 127 -491 333 -646 591 -20 34 -37 68 -37 76 0 23 137 150
218 202 108 70 202 106 367 140 47 9 175 5 239 -9z"/>
<path d="M8193 5873 l-272 -3 -5 -33 c-11 -64 -26 -189 -26 -213 0 -17 6 -24
19 -24 49 0 297 -53 332 -70 75 -39 74 -26 77 -558 l3 -473 -50 25 c-180 92
-447 146 -652 132 -293 -19 -530 -116 -722 -296 -347 -324 -499 -949 -371
-1525 80 -363 217 -584 449 -724 131 -79 349 -133 545 -134 291 -1 515 97 739
325 50 50 93 90 95 87 2 -2 18 -86 36 -186 19 -100 36 -187 40 -193 4 -7 111
-6 346 5 186 8 358 15 382 15 l42 0 0 115 c0 99 -2 116 -17 123 -10 5 -83 22
-162 37 -152 30 -189 48 -214 104 -9 19 -13 465 -17 1728 -5 1616 -6 1703 -23
1720 -20 20 -72 22 -574 16z m-258 -1582 c152 -31 311 -108 359 -174 20 -28
21 -42 24 -425 3 -433 -9 -750 -33 -852 -57 -237 -247 -431 -477 -485 -145
-34 -323 -10 -459 61 -237 125 -362 437 -363 904 0 269 36 456 124 637 99 204
251 319 465 353 82 12 251 4 360 -19z"/>
<path d="M5467 5810 c-58 -15 -114 -47 -157 -90 -158 -158 -115 -433 84 -538
46 -24 61 -27 156 -27 95 0 111 3 162 28 108 53 168 148 176 278 9 149 -51
260 -171 319 -71 35 -179 48 -250 30z"/>
<path d="M10275 4653 c-212 -17 -387 -77 -558 -191 -187 -125 -287 -282 -287
-451 0 -88 13 -129 55 -178 88 -103 280 -122 402 -40 64 43 93 96 93 170 0 51
-7 70 -61 174 l-60 117 23 18 c125 95 383 148 563 115 242 -45 348 -148 386
-376 16 -98 31 -524 18 -532 -6 -3 -54 -9 -107 -13 -267 -19 -522 -58 -732
-112 -325 -83 -493 -222 -554 -459 -24 -92 -39 -251 -32 -336 26 -319 256
-538 610 -580 300 -35 619 107 803 357 26 35 48 62 50 60 2 -2 13 -36 24 -75
64 -233 204 -341 444 -341 98 0 180 17 262 55 53 24 159 92 187 120 21 22 20
64 -4 145 l-20 67 -92 -18 c-219 -43 -313 -10 -353 124 -13 43 -15 151 -15
691 0 368 -4 688 -10 751 -46 476 -279 685 -820 734 -112 11 -133 11 -215 4z
m580 -1635 c-8 -234 -24 -331 -66 -416 -78 -159 -280 -281 -465 -282 -178 0
-316 79 -381 217 -97 210 -11 438 207 548 157 79 357 117 649 124 l63 1 -7
-192z"/>
<path d="M5335 4580 c-148 -10 -284 -19 -300 -19 l-31 -1 -17 -122 c-9 -67
-15 -123 -13 -125 2 -2 69 -14 149 -28 169 -28 210 -43 231 -83 34 -66 37
-145 34 -957 -3 -887 0 -840 -70 -876 -22 -11 -110 -32 -199 -47 l-159 -27 0
-122 0 -123 670 0 670 0 0 103 c0 71 -4 109 -13 122 -11 13 -52 25 -167 47
-85 15 -167 36 -184 46 -17 10 -41 37 -53 62 l-23 44 0 1043 c0 1030 0 1043
-20 1063 -18 18 -32 20 -127 19 -60 -1 -229 -10 -378 -19z"/>
</g>
</svg>
